<svg xmlns="http://www.w3.org/2000/svg" xmlns:xlink="http://www.w3.org/1999/xlink" viewBox="0 0 169 172.09"><defs><style>.cls-1,.cls-10{fill:none;}.cls-2{isolation:isolate;}.cls-3{fill:#d6d3ea;}.cls-4{opacity:0.07;}.cls-4,.cls-8{mix-blend-mode:overlay;}.cls-5{clip-path:url(#clip-path);}.cls-6{fill:#fff;}.cls-7{fill:#f4f1ef;}.cls-8{fill:#51504f;opacity:0.5;}.cls-9{fill:#4c423f;}.cls-10{stroke:#282727;stroke-miterlimit:10;stroke-width:3px;}.cls-11{opacity:0.1;}</style><clipPath id="clip-path"><circle id="_Clipping_Path_" data-name="&lt;Clipping Path&gt;" class="cls-1" cx="84.5" cy="84.5" r="84.5"/></clipPath></defs><title>avatar-03</title><g class="cls-2"><g id="Layer_2" data-name="Layer 2"><g id="Objects"><g id="_Group_" data-name="&lt;Group&gt;"><circle id="_Path_" data-name="&lt;Path&gt;" class="cls-3" cx="84.5" cy="84.5" r="84.5"/><path id="_Path_2" data-name="&lt;Path&gt;" class="cls-4" d="M7.64,92.14a84.5,84.5,0,0,1,140.3-63.45A84.5,84.5,0,1,0,28.69,147.94,84.16,84.16,0,0,1,7.64,92.14Z"/><circle id="_Path_3" data-name="&lt;Path&gt;" class="cls-1" cx="84.5" cy="84.5" r="84.5"/><g id="_Clip_Group_2" data-name="&lt;Clip Group&gt;"><g class="cls-5"><g id="_Group_2" data-name="&lt;Group&gt;"><g id="_Group_3" data-name="&lt;Group&gt;"><g id="_Group_4" data-name="&lt;Group&gt;"><path id="_Path_4" data-name="&lt;Path&gt;" class="cls-6" d="M60.15,64.71c1.26,6.29-.82,12.36-4.65,13.55s-8-2.94-9.21-9.23.81-12.36,4.64-13.56S58.88,58.41,60.15,64.71Z"/><ellipse id="_Path_5" data-name="&lt;Path&gt;" class="cls-7" cx="115.2" cy="66.87" rx="11.66" ry="7.19" transform="matrix(0.13, -0.99, 0.99, 0.13, 33.62, 172.16)"/><path id="_Path_6" data-name="&lt;Path&gt;" class="cls-8" d="M127.56,130.64l-15.93-4.25c-.62-.17-1.23-.38-1.82-.6l-.44-.17c-.49-.21-1-.43-1.46-.67l-.18-.09.6-.92-9.22-8.14a19.33,19.33,0,0,1-1.07-3c7.36-4.19,12.26-11.59,12.26-20a21.66,21.66,0,0,0-.62-5.11,71.42,71.42,0,0,0,4-8.74A2.69,2.69,0,0,0,117.88,77a14,14,0,0,0,4.25-8c1.18-5.88-.56-11.57-3.92-13.26h0s3-15-5-26.08C106,19.89,94.9,12.86,84.81,14.06v158h50.65l4.17-22.31A16.65,16.65,0,0,0,127.56,130.64Z"/></g><ellipse id="_Path_7" data-name="&lt;Path&gt;" class="cls-9" cx="84.13" cy="92.77" rx="26.17" ry="23.67"/><path id="_Path_8" data-name="&lt;Path&gt;" class="cls-7" d="M111.63,126.39a19.24,19.24,0,0,1-14.24-17.5L95.83,81.44H70.31L68.68,110a19.23,19.23,0,0,1-14.47,17.55l-12.54,3.19A16.63,16.63,0,0,0,29.41,150l4.13,22.13H135.46l4.17-22.31a16.65,16.65,0,0,0-12.07-19.14Z"/><path id="_Path_9" data-name="&lt;Path&gt;" class="cls-6" d="M117.83,57.94c0,23.38-18,51.33-33.33,51.33S51.17,81.32,51.17,57.94,66.09,20.6,84.5,20.6,117.83,34.56,117.83,57.94Z"/><path id="_Path_10" data-name="&lt;Path&gt;" class="cls-9" d="M74,19.36c-6.13.76-15,1.24-20.75,13.42C47.14,45.56,49.86,56,49.86,56c6.8-.5,8.1,13.13,8.1,13.13S61,63,61.08,58.94c5-.5,25.84-5.41,31.92-19.16,14.9.08,16.38,20.84,16.25,23.5l2,3.59s2-11.13,7-11.1c0,0,3-15-5-26.08C103.29,16.14,85.8,7.87,74,19.36Z"/><circle id="_Path_11" data-name="&lt;Path&gt;" class="cls-10" cx="70.18" cy="68.94" r="10.66"/><circle id="_Path_12" data-name="&lt;Path&gt;" class="cls-10" cx="99.24" cy="68.94" r="10.66"/><line id="_Path_13" data-name="&lt;Path&gt;" class="cls-10" x1="80.84" y1="68.94" x2="88.58" y2="68.94"/><circle id="_Path_14" data-name="&lt;Path&gt;" class="cls-6" cx="53.22" cy="76.68" r="2.71"/><circle id="_Path_15" data-name="&lt;Path&gt;" class="cls-6" cx="115.2" cy="76.68" r="2.71"/><path id="_Path_16" data-name="&lt;Path&gt;" class="cls-6" d="M127.56,130.64l-15.93-4.25a19.46,19.46,0,0,1-3.91-1.52l.61-.93-9.22-8.14L84,130.91,67.82,114.72l-8.74,9.14.88,1.21a19.17,19.17,0,0,1-5.75,2.52l-12.54,3.19A16.63,16.63,0,0,0,29.41,150l4.13,22.13H135.46l4.17-22.31A16.65,16.65,0,0,0,127.56,130.64Z"/><polygon id="_Path_17" data-name="&lt;Path&gt;" class="cls-11" points="65 133.03 77.5 147.94 84.01 130.91 79.5 155.19 65 133.03"/><polygon id="_Path_18" data-name="&lt;Path&gt;" class="cls-11" points="103.01 133.03 90.51 147.94 84 130.91 88.51 155.19 103.01 133.03"/><polygon id="_Path_19" data-name="&lt;Path&gt;" points="84 133.69 66.83 135.69 67.83 126.36 84 130.36 84 133.69"/><polygon id="_Path_20" data-name="&lt;Path&gt;" points="84 133.69 101.17 135.69 100.17 126.36 84 130.36 84 133.69"/><polygon id="_Path_21" data-name="&lt;Path&gt;" points="83.02 133.45 80.51 140.03 77.13 167.9 82.13 164.03 83.02 133.45"/><polygon id="_Path_22" data-name="&lt;Path&gt;" points="84.81 132.82 87.32 139.4 90.7 167.28 85.7 163.4 84.81 132.82"/></g></g></g></g></g></g></g></g></svg>