<svg xmlns="http://www.w3.org/2000/svg" xmlns:xlink="http://www.w3.org/1999/xlink" viewBox="0 0 169 174.21"><defs><style>.cls-1,.cls-9{fill:none;}.cls-2{isolation:isolate;}.cls-3{fill:#7db3ef;}.cls-4{opacity:0.07;}.cls-4,.cls-8{mix-blend-mode:overlay;}.cls-5{clip-path:url(#clip-path);}.cls-6{fill:#fff;}.cls-7{fill:#f4f1ef;}.cls-8{fill:#51504f;opacity:0.5;}.cls-9{stroke:#544e49;stroke-linejoin:round;stroke-width:6px;}.cls-10{fill:#544e49;}.cls-11{fill:#db674c;}.cls-12{fill:#ce5e4b;}</style><clipPath id="clip-path"><circle id="_Clipping_Path_" data-name="&lt;Clipping Path&gt;" class="cls-1" cx="84.5" cy="84.5" r="84.5"/></clipPath></defs><title>avatar-08</title><g class="cls-2"><g id="Layer_2" data-name="Layer 2"><g id="Objects"><g id="_Group_" data-name="&lt;Group&gt;"><circle id="_Path_" data-name="&lt;Path&gt;" class="cls-3" cx="84.5" cy="84.5" r="84.5"/><path id="_Path_2" data-name="&lt;Path&gt;" class="cls-4" d="M7.64,92.14a84.5,84.5,0,0,1,140.3-63.45A84.5,84.5,0,1,0,28.69,147.94,84.16,84.16,0,0,1,7.64,92.14Z"/><circle id="_Path_3" data-name="&lt;Path&gt;" class="cls-1" cx="84.5" cy="84.5" r="84.5"/><circle id="_Path_4" data-name="&lt;Path&gt;" class="cls-1" cx="84.5" cy="84.5" r="84.5"/><g id="_Clip_Group_" data-name="&lt;Clip Group&gt;"><g class="cls-5"><g id="_Group_2" data-name="&lt;Group&gt;"><g id="_Group_3" data-name="&lt;Group&gt;"><g id="_Group_4" data-name="&lt;Group&gt;"><path id="_Path_5" data-name="&lt;Path&gt;" class="cls-6" d="M60.42,69.29c1.26,5.17-.81,10.14-4.64,11.12s-8-2.41-9.22-7.57.81-10.14,4.64-11.12S59.16,64.13,60.42,69.29Z"/><path id="_Path_6" data-name="&lt;Path&gt;" class="cls-7" d="M108.55,69.29c-1.27,5.17.81,10.14,4.64,11.12s8-2.41,9.21-7.57-.81-10.14-4.64-11.12S109.81,64.13,108.55,69.29Z"/><path id="_Path_7" data-name="&lt;Path&gt;" class="cls-8" d="M127.33,132.7l-15.72-4.2c-.24-.06-.48-.15-.72-.22-.49-.15-1-.32-1.43-.51l-.43-.17c-.25-.1-.49-.22-.73-.33l-.45-.22c-.24-.12-.48-.24-.71-.37l-.38-.23-.57-.35L106,126l-.41-.28-.43-.31-.24-.19-.36-.27-.41-.34-.57-.5A19.22,19.22,0,0,1,97.37,111l-.09-1.6a26.61,26.61,0,0,0,16.55-24.64v-4.2l0,0c3.63.46,7.36-2.83,8.55-7.7,1.27-5.15-.81-10.13-4.62-11.11v-.22A52.07,52.07,0,0,0,119.42,48c0-6.92-4-14.58-4-14.58s1.11-6.59-4.39-9.25a20.66,20.66,0,0,0-21.46-9.42,9.76,9.76,0,0,0-4.82-2.45V174.21h50.64l4.13-22.1A16.88,16.88,0,0,0,127.33,132.7Z"/></g><path id="_Path_8" data-name="&lt;Path&gt;" class="cls-7" d="M111.61,128.5A19.24,19.24,0,0,1,97.37,111L95.82,83.55H70.29l-1.63,28.61a19.23,19.23,0,0,1-14.47,17.55l-12.32,3.13A16.88,16.88,0,0,0,29.43,152.3l4.09,21.91H135.44l4.13-22.1a16.88,16.88,0,0,0-12.24-19.41Z"/><path id="_Path_9" data-name="&lt;Path&gt;" class="cls-6" d="M117.82,60.05c0,23.38-18,51.34-33.34,51.34s-33.33-28-33.33-51.34S66.07,22.72,84.48,22.72,117.82,36.67,117.82,60.05Z"/><path id="_Rectangle_" data-name="&lt;Rectangle&gt;" class="cls-9" d="M81.15,78h7.3a9.35,9.35,0,0,1,9.35,9.35v18a0,0,0,0,1,0,0h-26a0,0,0,0,1,0,0v-18A9.35,9.35,0,0,1,81.15,78Z"/><path id="_Compound_Path_" data-name="&lt;Compound Path&gt;" class="cls-10" d="M115.47,33.41s1.11-6.59-4.39-9.25a20.66,20.66,0,0,0-21.46-9.42s-4.82-4.87-10.5-1.21c0,0-9.23-.44-13.87,6.84-2-.6-7.41,2.55-9,8-.31.34-5.73,2.09-6,19,0,.87-.06,1.77-.07,2.69v.11h0a69.75,69.75,0,0,0,1,11.49s1.75-.13,3.51,2.31V84.77a26.61,26.61,0,0,0,26.61,26.62h5.94a26.61,26.61,0,0,0,26.61-26.62V64.43c.78-2.86,3.89-2.71,3.89-2.71A50.82,50.82,0,0,0,119.42,48C119.42,41.07,115.47,33.41,115.47,33.41ZM84.25,92.32c-11.74,0-21.19-3.54-24.13-8.77-3.7-6.59-3.4-22.66-2.06-30.11a25.7,25.7,0,0,1,7-13.14,7,7,0,0,1,6.86-3.08c.26.14,12.57,11.77,32.77,4.33a14.79,14.79,0,0,1,5.9,9.58c1.25,8.11,1.53,26.16-2.41,33.37C105.4,89.59,96.65,92.32,84.25,92.32Z"/><path id="_Path_10" data-name="&lt;Path&gt;" class="cls-11" d="M127.33,132.7l-15.72-4.2a19.15,19.15,0,0,1-8-4.42,26.9,26.9,0,0,1-39.3-.75,19.17,19.17,0,0,1-10.08,6.38l-12.32,3.13A16.88,16.88,0,0,0,29.43,152.3l4.09,21.91H135.44l4.13-22.1A16.88,16.88,0,0,0,127.33,132.7Z"/><path id="_Path_11" data-name="&lt;Path&gt;" class="cls-12" d="M84.27,141.16a35.14,35.14,0,0,0,27-12.76,19.25,19.25,0,0,1-7.68-4.32,26.9,26.9,0,0,1-39.3-.75,19.27,19.27,0,0,1-6.83,5.23A35.12,35.12,0,0,0,84.27,141.16Z"/></g></g></g></g></g></g></g></g></svg>